<mxfile host="app.diagrams.net" modified="2024-07-22T10:43:33.791Z" agent="Mozilla/5.0 (Windows NT 10.0; Win64; x64) AppleWebKit/537.36 (KHTML, like Gecko) Chrome/126.0.0.0 Safari/537.36" etag="AzrL4tcLIO6jAn-iiI8M" version="24.7.1" type="github" pages="5">
  <diagram id="er5tn0g2h49u2DX2Hihr" name="Flow Diagram Of Project">
    <mxGraphModel dx="1434" dy="772" grid="1" gridSize="10" guides="1" tooltips="1" connect="1" arrows="1" fold="1" page="1" pageScale="1" pageWidth="827" pageHeight="1169" math="0" shadow="0">
      <root>
        <mxCell id="0" />
        <mxCell id="1" parent="0" />
        <mxCell id="LPn3I8FHrwuG1Et-0EGM-1" value="" style="edgeStyle=orthogonalEdgeStyle;rounded=0;orthogonalLoop=1;jettySize=auto;html=1;shadow=1;fontSize=12;" edge="1" parent="1" source="LPn3I8FHrwuG1Et-0EGM-2" target="LPn3I8FHrwuG1Et-0EGM-5">
          <mxGeometry relative="1" as="geometry" />
        </mxCell>
        <mxCell id="LPn3I8FHrwuG1Et-0EGM-2" value="User" style="rounded=1;whiteSpace=wrap;html=1;shadow=1;fontSize=12;" vertex="1" parent="1">
          <mxGeometry x="279.9963636363636" y="10.004444444444445" width="78.32727272727271" height="26.666666666666668" as="geometry" />
        </mxCell>
        <mxCell id="LPn3I8FHrwuG1Et-0EGM-4" value="" style="edgeStyle=orthogonalEdgeStyle;rounded=0;orthogonalLoop=1;jettySize=auto;html=1;" edge="1" parent="1" source="LPn3I8FHrwuG1Et-0EGM-5" target="LPn3I8FHrwuG1Et-0EGM-42">
          <mxGeometry relative="1" as="geometry" />
        </mxCell>
        <mxCell id="LPn3I8FHrwuG1Et-0EGM-5" value="Date Selection" style="whiteSpace=wrap;html=1;rounded=1;shadow=1;fontSize=12;arcSize=50;" vertex="1" parent="1">
          <mxGeometry x="279.99636363636364" y="89.99666666666667" width="78.32727272727271" height="26.666666666666668" as="geometry" />
        </mxCell>
        <mxCell id="LPn3I8FHrwuG1Et-0EGM-47" style="edgeStyle=orthogonalEdgeStyle;rounded=0;orthogonalLoop=1;jettySize=auto;html=1;exitX=0.5;exitY=0;exitDx=0;exitDy=0;" edge="1" parent="1" source="LPn3I8FHrwuG1Et-0EGM-26" target="LPn3I8FHrwuG1Et-0EGM-46">
          <mxGeometry relative="1" as="geometry" />
        </mxCell>
        <mxCell id="LPn3I8FHrwuG1Et-0EGM-26" value="Hotel Information (Hotels Table)" style="whiteSpace=wrap;html=1;rounded=1;shadow=1;fontSize=12;direction=west;" vertex="1" parent="1">
          <mxGeometry x="416.98" y="246.56" width="200" height="26.67" as="geometry" />
        </mxCell>
        <mxCell id="LPn3I8FHrwuG1Et-0EGM-50" style="edgeStyle=orthogonalEdgeStyle;rounded=0;orthogonalLoop=1;jettySize=auto;html=1;exitX=0.5;exitY=0;exitDx=0;exitDy=0;" edge="1" parent="1" source="LPn3I8FHrwuG1Et-0EGM-28" target="LPn3I8FHrwuG1Et-0EGM-49">
          <mxGeometry relative="1" as="geometry" />
        </mxCell>
        <mxCell id="LPn3I8FHrwuG1Et-0EGM-28" value="Available -&amp;gt; Make Reservation" style="whiteSpace=wrap;html=1;rounded=1;shadow=1;fontSize=12;direction=west;" vertex="1" parent="1">
          <mxGeometry x="65.47" y="319.89" width="174.05" height="25.78" as="geometry" />
        </mxCell>
        <mxCell id="LPn3I8FHrwuG1Et-0EGM-44" style="edgeStyle=orthogonalEdgeStyle;rounded=0;orthogonalLoop=1;jettySize=auto;html=1;exitX=0.25;exitY=1;exitDx=0;exitDy=0;" edge="1" parent="1" source="LPn3I8FHrwuG1Et-0EGM-42" target="LPn3I8FHrwuG1Et-0EGM-43">
          <mxGeometry relative="1" as="geometry" />
        </mxCell>
        <mxCell id="LPn3I8FHrwuG1Et-0EGM-45" style="edgeStyle=orthogonalEdgeStyle;rounded=0;orthogonalLoop=1;jettySize=auto;html=1;exitX=0.75;exitY=1;exitDx=0;exitDy=0;" edge="1" parent="1" source="LPn3I8FHrwuG1Et-0EGM-42" target="LPn3I8FHrwuG1Et-0EGM-26">
          <mxGeometry relative="1" as="geometry" />
        </mxCell>
        <mxCell id="LPn3I8FHrwuG1Et-0EGM-42" value="Hotel seleciton" style="whiteSpace=wrap;html=1;rounded=1;shadow=1;fontSize=12;arcSize=50;" vertex="1" parent="1">
          <mxGeometry x="279.99909090909085" y="176.55666666666667" width="78.32727272727271" height="26.666666666666668" as="geometry" />
        </mxCell>
        <mxCell id="LPn3I8FHrwuG1Et-0EGM-48" style="edgeStyle=orthogonalEdgeStyle;rounded=0;orthogonalLoop=1;jettySize=auto;html=1;exitX=0.5;exitY=0;exitDx=0;exitDy=0;" edge="1" parent="1" source="LPn3I8FHrwuG1Et-0EGM-43" target="LPn3I8FHrwuG1Et-0EGM-28">
          <mxGeometry relative="1" as="geometry" />
        </mxCell>
        <mxCell id="LPn3I8FHrwuG1Et-0EGM-43" value="Check Room Information and Availability" style="whiteSpace=wrap;html=1;rounded=1;shadow=1;fontSize=12;direction=west;" vertex="1" parent="1">
          <mxGeometry x="40" y="246.56" width="225" height="26.67" as="geometry" />
        </mxCell>
        <mxCell id="LPn3I8FHrwuG1Et-0EGM-46" value="Room Information (Rooms Table)" style="whiteSpace=wrap;html=1;rounded=1;shadow=1;fontSize=12;direction=west;" vertex="1" parent="1">
          <mxGeometry x="416.98" y="319.89" width="200" height="26.67" as="geometry" />
        </mxCell>
        <mxCell id="LPn3I8FHrwuG1Et-0EGM-53" style="edgeStyle=orthogonalEdgeStyle;rounded=0;orthogonalLoop=1;jettySize=auto;html=1;exitX=0.5;exitY=0;exitDx=0;exitDy=0;" edge="1" parent="1" source="LPn3I8FHrwuG1Et-0EGM-49" target="LPn3I8FHrwuG1Et-0EGM-52">
          <mxGeometry relative="1" as="geometry" />
        </mxCell>
        <mxCell id="LPn3I8FHrwuG1Et-0EGM-49" value="Log In or Create Account (Users Table) " style="whiteSpace=wrap;html=1;rounded=1;shadow=1;fontSize=12;direction=west;" vertex="1" parent="1">
          <mxGeometry x="40.47" y="426.56" width="224.53" height="25.78" as="geometry" />
        </mxCell>
        <mxCell id="LPn3I8FHrwuG1Et-0EGM-56" style="edgeStyle=orthogonalEdgeStyle;rounded=0;orthogonalLoop=1;jettySize=auto;html=1;exitX=0.5;exitY=0;exitDx=0;exitDy=0;entryX=0.5;entryY=1;entryDx=0;entryDy=0;" edge="1" parent="1" source="LPn3I8FHrwuG1Et-0EGM-52" target="LPn3I8FHrwuG1Et-0EGM-55">
          <mxGeometry relative="1" as="geometry">
            <mxPoint x="152.80000000000018" y="606.56" as="targetPoint" />
            <Array as="points" />
          </mxGeometry>
        </mxCell>
        <mxCell id="LPn3I8FHrwuG1Et-0EGM-52" value="Enter and Confirm Payment Information " style="whiteSpace=wrap;html=1;rounded=1;shadow=1;fontSize=12;direction=west;" vertex="1" parent="1">
          <mxGeometry x="40.47" y="526.56" width="224.53" height="25.78" as="geometry" />
        </mxCell>
        <mxCell id="LPn3I8FHrwuG1Et-0EGM-58" style="edgeStyle=orthogonalEdgeStyle;rounded=0;orthogonalLoop=1;jettySize=auto;html=1;exitX=0.5;exitY=0;exitDx=0;exitDy=0;" edge="1" parent="1" source="LPn3I8FHrwuG1Et-0EGM-55" target="LPn3I8FHrwuG1Et-0EGM-57">
          <mxGeometry relative="1" as="geometry">
            <mxPoint x="152.73499999999967" y="632.3399999999999" as="sourcePoint" />
          </mxGeometry>
        </mxCell>
        <mxCell id="LPn3I8FHrwuG1Et-0EGM-55" value="Create Reservation and Provide Confirmation Code (Reservations Table) " style="whiteSpace=wrap;html=1;rounded=1;shadow=1;fontSize=12;direction=west;" vertex="1" parent="1">
          <mxGeometry x="4.219999999999999" y="600" width="297.03" height="30" as="geometry" />
        </mxCell>
        <mxCell id="LPn3I8FHrwuG1Et-0EGM-57" value="Update Reservation Status (Reservations Table) " style="whiteSpace=wrap;html=1;rounded=1;shadow=1;fontSize=12;direction=west;" vertex="1" parent="1">
          <mxGeometry x="22.97" y="700" width="259.53" height="25.78" as="geometry" />
        </mxCell>
        <mxCell id="Ss4pQNGaq4_sJya7AEQc-3" value="&lt;li&gt;&lt;strong&gt;User&lt;/strong&gt;: Opens the system and selects a date.&lt;/li&gt;&lt;li&gt;&lt;strong&gt;Date Selection&lt;/strong&gt;: User selects a date.&lt;/li&gt;&lt;li&gt;&lt;strong&gt;Hotel Selection&lt;/strong&gt;: User selects a hotel.&lt;/li&gt;&lt;li&gt;&lt;strong&gt;Check Room Information and Availability&lt;/strong&gt;: Checks if the room is available (Rooms and Hotels tables).&lt;/li&gt;&lt;li&gt;&lt;strong&gt;Available -&amp;gt; Make Reservation&lt;/strong&gt;: If the room is available, the user makes a reservation.&lt;/li&gt;&lt;li&gt;&lt;strong&gt;Log In or Create Account&lt;/strong&gt;: User logs in or creates a new account (Users table).&lt;/li&gt;&lt;li&gt;&lt;strong&gt;Enter and Confirm Payment Information&lt;/strong&gt;: User enters and confirms payment information.&lt;/li&gt;&lt;li&gt;&lt;strong&gt;Create Reservation and Provide Confirmation Code&lt;/strong&gt;: Reservation is created, and a confirmation code is given to the user (Reservations table).&lt;/li&gt;&lt;li&gt;&lt;strong&gt;Update Reservation Status&lt;/strong&gt;: Reservation status is updated (Reservations table).&lt;/li&gt;" style="text;html=1;align=center;verticalAlign=middle;whiteSpace=wrap;rounded=0;" vertex="1" parent="1">
          <mxGeometry x="380" y="480" width="390" height="240" as="geometry" />
        </mxCell>
      </root>
    </mxGraphModel>
  </diagram>
  <diagram id="OcDCUqbB7aCAF-l1utMa" name=" Tables of DB">
    <mxGraphModel dx="1434" dy="772" grid="1" gridSize="10" guides="1" tooltips="1" connect="1" arrows="1" fold="1" page="1" pageScale="1" pageWidth="850" pageHeight="1100" math="0" shadow="0">
      <root>
        <mxCell id="0" />
        <mxCell id="1" parent="0" />
        <mxCell id="0o_SYYz5hkE-AfQn-xej-9" value="" style="group" parent="1" vertex="1" connectable="0">
          <mxGeometry x="540" y="320" width="280" height="180" as="geometry" />
        </mxCell>
        <mxCell id="0o_SYYz5hkE-AfQn-xej-1" value="&lt;li&gt;&lt;font size=&quot;3&quot; face=&quot;monospace&quot;&gt;hotel_id INT PRIMARY KEY,&lt;/font&gt;&lt;/li&gt;&lt;li&gt;&lt;font size=&quot;3&quot; face=&quot;monospace&quot;&gt;name VARCHAR(20)&lt;/font&gt;&lt;/li&gt;&lt;li&gt;&lt;font size=&quot;3&quot; face=&quot;monospace&quot;&gt;description Text&lt;/font&gt;&lt;/li&gt;&lt;li&gt;&lt;font size=&quot;3&quot; face=&quot;monospace&quot;&gt;address VARCHAR(20)&lt;/font&gt;&lt;/li&gt;&lt;li&gt;&lt;font size=&quot;3&quot; face=&quot;monospace&quot;&gt;city VARCHAR(10)&lt;/font&gt;&lt;/li&gt;&lt;li&gt;&lt;font size=&quot;3&quot; face=&quot;monospace&quot;&gt;country VARCHAR(20)&lt;/font&gt;&lt;/li&gt;&lt;li&gt;&lt;font size=&quot;3&quot; face=&quot;monospace&quot;&gt;phone VARCHAR(20)&lt;/font&gt;&lt;/li&gt;&lt;li&gt;&lt;font size=&quot;3&quot; face=&quot;monospace&quot;&gt;email VARCHAR(20)&lt;/font&gt;&lt;/li&gt;&lt;li&gt;&lt;font size=&quot;3&quot; face=&quot;monospace&quot;&gt;rating FLOAT&lt;/font&gt;&lt;/li&gt;" style="shape=process;whiteSpace=wrap;html=1;backgroundOutline=1;" parent="0o_SYYz5hkE-AfQn-xej-9" vertex="1">
          <mxGeometry y="30" width="280" height="150" as="geometry" />
        </mxCell>
        <mxCell id="0o_SYYz5hkE-AfQn-xej-2" value="Hotels" style="text;html=1;align=center;verticalAlign=middle;whiteSpace=wrap;rounded=0;" parent="0o_SYYz5hkE-AfQn-xej-9" vertex="1">
          <mxGeometry x="85" width="110" height="20" as="geometry" />
        </mxCell>
        <mxCell id="0o_SYYz5hkE-AfQn-xej-11" value="" style="group" parent="1" vertex="1" connectable="0">
          <mxGeometry x="35" y="30" width="280" height="180" as="geometry" />
        </mxCell>
        <mxCell id="nRDwDQONeYsUFGXQLdGE-4" value="&lt;li&gt;&lt;font size=&quot;3&quot; face=&quot;monospace&quot;&gt;user_id INT PRIMARY KEY,&lt;/font&gt;&lt;/li&gt;&lt;li&gt;&lt;font size=&quot;3&quot; face=&quot;monospace&quot;&gt;user_name VARCHAR(20)&lt;/font&gt;&lt;/li&gt;&lt;li&gt;&lt;font size=&quot;3&quot; face=&quot;monospace&quot;&gt;password VARCHAR(20)&lt;/font&gt;&lt;/li&gt;&lt;li&gt;&lt;font size=&quot;3&quot; face=&quot;monospace&quot;&gt;email VARCHAR(20)&lt;/font&gt;&lt;/li&gt;&lt;li&gt;&lt;font size=&quot;3&quot; face=&quot;monospace&quot;&gt;phone VARCHAR(10)&lt;/font&gt;&lt;/li&gt;&lt;li&gt;&lt;font size=&quot;3&quot; face=&quot;monospace&quot;&gt;created_at DATETIME&lt;/font&gt;&lt;/li&gt;" style="shape=process;whiteSpace=wrap;html=1;backgroundOutline=1;" parent="0o_SYYz5hkE-AfQn-xej-11" vertex="1">
          <mxGeometry y="30" width="280" height="150" as="geometry" />
        </mxCell>
        <mxCell id="nRDwDQONeYsUFGXQLdGE-7" value="Users" style="text;html=1;align=center;verticalAlign=middle;whiteSpace=wrap;rounded=0;" parent="0o_SYYz5hkE-AfQn-xej-11" vertex="1">
          <mxGeometry x="85" width="110" height="20" as="geometry" />
        </mxCell>
        <mxCell id="0o_SYYz5hkE-AfQn-xej-12" value="" style="group" parent="1" vertex="1" connectable="0">
          <mxGeometry x="360" y="30" width="400" height="180" as="geometry" />
        </mxCell>
        <mxCell id="0o_SYYz5hkE-AfQn-xej-3" value="&lt;li&gt;&lt;font size=&quot;3&quot; face=&quot;monospace&quot;&gt;room_id INT PRIMARY KEY,&lt;/font&gt;&lt;/li&gt;&lt;li&gt;&lt;font size=&quot;3&quot; face=&quot;monospace&quot;&gt;hotel_id INT FOREIGN KEY REFERENCES Hotels(hotel_id)&lt;/font&gt;&lt;/li&gt;&lt;li&gt;&lt;font size=&quot;3&quot; face=&quot;monospace&quot;&gt;room_type VARCHAR(20)//tek kişi,üç kişi ect.&lt;/font&gt;&lt;/li&gt;&lt;li&gt;&lt;font size=&quot;3&quot; face=&quot;monospace&quot;&gt;price_per_night DECIMAL&lt;/font&gt;&lt;/li&gt;&lt;li&gt;&lt;font size=&quot;3&quot; face=&quot;monospace&quot;&gt;availability BOOLEAN&lt;/font&gt;&lt;/li&gt;" style="shape=process;whiteSpace=wrap;html=1;backgroundOutline=1;" parent="0o_SYYz5hkE-AfQn-xej-12" vertex="1">
          <mxGeometry y="30" width="400" height="150" as="geometry" />
        </mxCell>
        <mxCell id="0o_SYYz5hkE-AfQn-xej-4" value="Rooms" style="text;html=1;align=center;verticalAlign=middle;whiteSpace=wrap;rounded=0;" parent="0o_SYYz5hkE-AfQn-xej-12" vertex="1">
          <mxGeometry x="130" width="110" height="20" as="geometry" />
        </mxCell>
        <mxCell id="0o_SYYz5hkE-AfQn-xej-13" value="" style="group" parent="1" vertex="1" connectable="0">
          <mxGeometry x="20" y="390" width="480" height="220" as="geometry" />
        </mxCell>
        <mxCell id="0o_SYYz5hkE-AfQn-xej-5" value="&lt;li&gt;&lt;font size=&quot;3&quot; face=&quot;monospace&quot;&gt;reservation_id INT PRIMARY KEY,&lt;/font&gt;&lt;/li&gt;&lt;li&gt;&lt;font size=&quot;3&quot; face=&quot;monospace&quot;&gt;user_id&amp;nbsp;&lt;/font&gt;INT FOREIGN KEY REFERENCES Users(user_id)&lt;/li&gt;&lt;li&gt;&lt;font size=&quot;3&quot; face=&quot;monospace&quot;&gt;room_id&amp;nbsp;&lt;/font&gt;INT FOREIGN KEY REFERENCES Rooms(room_id)&lt;/li&gt;&lt;li&gt;&lt;font size=&quot;3&quot; face=&quot;monospace&quot;&gt;check_in_date DATE&lt;/font&gt;&lt;/li&gt;&lt;li&gt;&lt;font size=&quot;3&quot; face=&quot;monospace&quot;&gt;check_out_date DATE&lt;/font&gt;&lt;/li&gt;&lt;li&gt;&lt;font size=&quot;3&quot; face=&quot;monospace&quot;&gt;total_price DECIMAL&lt;/font&gt;&lt;/li&gt;&lt;li&gt;&lt;font size=&quot;3&quot; face=&quot;monospace&quot;&gt;reservation_status VARCHAR(20)//Cancelled,Approved&amp;nbsp;&lt;/font&gt;&lt;/li&gt;&lt;li&gt;&lt;font size=&quot;3&quot; face=&quot;monospace&quot;&gt;&lt;br&gt;&lt;/font&gt;&lt;/li&gt;" style="shape=process;whiteSpace=wrap;html=1;backgroundOutline=1;" parent="0o_SYYz5hkE-AfQn-xej-13" vertex="1">
          <mxGeometry y="33" width="480" height="187" as="geometry" />
        </mxCell>
        <mxCell id="0o_SYYz5hkE-AfQn-xej-6" value="Reservaitons" style="text;html=1;align=center;verticalAlign=middle;whiteSpace=wrap;rounded=0;" parent="0o_SYYz5hkE-AfQn-xej-13" vertex="1">
          <mxGeometry x="137.14285714285714" width="107.75510204081631" height="22" as="geometry" />
        </mxCell>
        <mxCell id="0o_SYYz5hkE-AfQn-xej-14" style="edgeStyle=orthogonalEdgeStyle;rounded=0;orthogonalLoop=1;jettySize=auto;html=1;exitX=0.25;exitY=1;exitDx=0;exitDy=0;entryX=0.75;entryY=0;entryDx=0;entryDy=0;" parent="1" source="0o_SYYz5hkE-AfQn-xej-3" target="0o_SYYz5hkE-AfQn-xej-1" edge="1">
          <mxGeometry relative="1" as="geometry">
            <Array as="points">
              <mxPoint x="560" y="210" />
              <mxPoint x="560" y="245" />
              <mxPoint x="750" y="245" />
            </Array>
          </mxGeometry>
        </mxCell>
        <mxCell id="0o_SYYz5hkE-AfQn-xej-15" style="edgeStyle=orthogonalEdgeStyle;rounded=0;orthogonalLoop=1;jettySize=auto;html=1;exitX=0.25;exitY=1;exitDx=0;exitDy=0;entryX=0.75;entryY=0;entryDx=0;entryDy=0;" parent="1" source="0o_SYYz5hkE-AfQn-xej-3" target="0o_SYYz5hkE-AfQn-xej-5" edge="1">
          <mxGeometry relative="1" as="geometry" />
        </mxCell>
        <mxCell id="0o_SYYz5hkE-AfQn-xej-17" style="edgeStyle=orthogonalEdgeStyle;rounded=0;orthogonalLoop=1;jettySize=auto;html=1;exitX=0.25;exitY=1;exitDx=0;exitDy=0;entryX=0.25;entryY=0;entryDx=0;entryDy=0;" parent="1" source="nRDwDQONeYsUFGXQLdGE-4" target="0o_SYYz5hkE-AfQn-xej-5" edge="1">
          <mxGeometry relative="1" as="geometry" />
        </mxCell>
      </root>
    </mxGraphModel>
  </diagram>
  <diagram id="SahQuH-iYKF9wmXist49" name="USER_SERVICES">
    <mxGraphModel dx="1434" dy="3110" grid="1" gridSize="10" guides="1" tooltips="1" connect="1" arrows="1" fold="1" page="1" pageScale="1" pageWidth="827" pageHeight="1169" math="0" shadow="0">
      <root>
        <mxCell id="0" />
        <mxCell id="1" parent="0" />
        <mxCell id="MY4qJXvExlTHak5WIAEV-4" value="" style="edgeStyle=orthogonalEdgeStyle;rounded=0;orthogonalLoop=1;jettySize=auto;html=1;" edge="1" parent="1" source="zHAUQiSuxFZU5zrgK4hU-1" target="MY4qJXvExlTHak5WIAEV-3">
          <mxGeometry relative="1" as="geometry" />
        </mxCell>
        <mxCell id="zHAUQiSuxFZU5zrgK4hU-1" value="LOG_IN_SERVICE" style="rounded=0;whiteSpace=wrap;html=1;" parent="1" vertex="1">
          <mxGeometry x="20" y="-2250" width="170" height="30" as="geometry" />
        </mxCell>
        <mxCell id="MY4qJXvExlTHak5WIAEV-5" value="" style="edgeStyle=orthogonalEdgeStyle;rounded=0;orthogonalLoop=1;jettySize=auto;html=1;entryX=0;entryY=0.5;entryDx=0;entryDy=0;" edge="1" parent="1" source="xCz8EZ8pX_xYFV6RzJaQ-1" target="MY4qJXvExlTHak5WIAEV-7">
          <mxGeometry relative="1" as="geometry">
            <mxPoint x="414" y="-1850" as="targetPoint" />
          </mxGeometry>
        </mxCell>
        <mxCell id="xCz8EZ8pX_xYFV6RzJaQ-1" value="DATE_CHOICE_SERVICE" style="rounded=0;whiteSpace=wrap;html=1;" parent="1" vertex="1">
          <mxGeometry x="20" y="-2070" width="170" height="30" as="geometry" />
        </mxCell>
        <mxCell id="bn-_3K56SrCzuvJVatGM-1" value="GUEST_NUM_SERVICE" style="rounded=0;whiteSpace=wrap;html=1;" parent="1" vertex="1">
          <mxGeometry x="20" y="-1970" width="170" height="30" as="geometry" />
        </mxCell>
        <mxCell id="MY4qJXvExlTHak5WIAEV-14" style="edgeStyle=orthogonalEdgeStyle;rounded=0;orthogonalLoop=1;jettySize=auto;html=1;exitX=1;exitY=0.5;exitDx=0;exitDy=0;entryX=0;entryY=0.5;entryDx=0;entryDy=0;" edge="1" parent="1" source="bn-_3K56SrCzuvJVatGM-2" target="MY4qJXvExlTHak5WIAEV-13">
          <mxGeometry relative="1" as="geometry">
            <mxPoint x="260" y="-1779.9999999999998" as="targetPoint" />
          </mxGeometry>
        </mxCell>
        <mxCell id="bn-_3K56SrCzuvJVatGM-2" value="HOTEL_CHOICE_SERVICE" style="rounded=0;whiteSpace=wrap;html=1;" parent="1" vertex="1">
          <mxGeometry x="20" y="-1860" width="170" height="30" as="geometry" />
        </mxCell>
        <mxCell id="MY4qJXvExlTHak5WIAEV-16" style="edgeStyle=orthogonalEdgeStyle;rounded=0;orthogonalLoop=1;jettySize=auto;html=1;exitX=1;exitY=0.5;exitDx=0;exitDy=0;entryX=0;entryY=0.5;entryDx=0;entryDy=0;" edge="1" parent="1" source="bn-_3K56SrCzuvJVatGM-3" target="MY4qJXvExlTHak5WIAEV-15">
          <mxGeometry relative="1" as="geometry" />
        </mxCell>
        <mxCell id="bn-_3K56SrCzuvJVatGM-3" value="ROOM_REQUEST_SERVICE" style="rounded=0;whiteSpace=wrap;html=1;" parent="1" vertex="1">
          <mxGeometry x="20" y="-1720" width="170" height="30" as="geometry" />
        </mxCell>
        <mxCell id="MY4qJXvExlTHak5WIAEV-37" style="edgeStyle=orthogonalEdgeStyle;rounded=0;orthogonalLoop=1;jettySize=auto;html=1;exitX=1;exitY=0.5;exitDx=0;exitDy=0;" edge="1" parent="1" source="WboYY2DEAX7a10xXR0Qw-1" target="MY4qJXvExlTHak5WIAEV-17">
          <mxGeometry relative="1" as="geometry" />
        </mxCell>
        <mxCell id="WboYY2DEAX7a10xXR0Qw-1" value="ROOM_AVAILABILITY_SERVICE" style="rounded=0;whiteSpace=wrap;html=1;" parent="1" vertex="1">
          <mxGeometry x="20" y="-1550" width="190" height="30" as="geometry" />
        </mxCell>
        <mxCell id="MY4qJXvExlTHak5WIAEV-38" style="edgeStyle=orthogonalEdgeStyle;rounded=0;orthogonalLoop=1;jettySize=auto;html=1;exitX=1;exitY=0.5;exitDx=0;exitDy=0;entryX=0;entryY=0.5;entryDx=0;entryDy=0;" edge="1" parent="1" source="WboYY2DEAX7a10xXR0Qw-2" target="MY4qJXvExlTHak5WIAEV-34">
          <mxGeometry relative="1" as="geometry" />
        </mxCell>
        <mxCell id="WboYY2DEAX7a10xXR0Qw-2" value="ROOM_SERVICE" style="rounded=0;whiteSpace=wrap;html=1;" parent="1" vertex="1">
          <mxGeometry x="20" y="-1430" width="170" height="30" as="geometry" />
        </mxCell>
        <mxCell id="MY4qJXvExlTHak5WIAEV-20" value="" style="edgeStyle=orthogonalEdgeStyle;rounded=0;orthogonalLoop=1;jettySize=auto;html=1;entryX=0;entryY=0.5;entryDx=0;entryDy=0;" edge="1" parent="1" source="WboYY2DEAX7a10xXR0Qw-3" target="MY4qJXvExlTHak5WIAEV-19">
          <mxGeometry relative="1" as="geometry">
            <mxPoint x="259.5" y="-2125" as="targetPoint" />
          </mxGeometry>
        </mxCell>
        <mxCell id="WboYY2DEAX7a10xXR0Qw-3" value="REGISTRATION SERVICE" style="rounded=0;whiteSpace=wrap;html=1;" parent="1" vertex="1">
          <mxGeometry x="20" y="-2180" width="170" height="30" as="geometry" />
        </mxCell>
        <mxCell id="MY4qJXvExlTHak5WIAEV-26" value="" style="edgeStyle=orthogonalEdgeStyle;rounded=0;orthogonalLoop=1;jettySize=auto;html=1;" edge="1" parent="1" source="WboYY2DEAX7a10xXR0Qw-4" target="MY4qJXvExlTHak5WIAEV-25">
          <mxGeometry relative="1" as="geometry" />
        </mxCell>
        <mxCell id="WboYY2DEAX7a10xXR0Qw-4" value="PAYMENT_SERVICE" style="rounded=0;whiteSpace=wrap;html=1;" parent="1" vertex="1">
          <mxGeometry x="20" y="-1095" width="170" height="30" as="geometry" />
        </mxCell>
        <mxCell id="MY4qJXvExlTHak5WIAEV-28" value="" style="edgeStyle=orthogonalEdgeStyle;rounded=0;orthogonalLoop=1;jettySize=auto;html=1;" edge="1" parent="1" source="WboYY2DEAX7a10xXR0Qw-5" target="MY4qJXvExlTHak5WIAEV-27">
          <mxGeometry relative="1" as="geometry" />
        </mxCell>
        <mxCell id="WboYY2DEAX7a10xXR0Qw-5" value="CONFIRMATION_SERVICE" style="rounded=0;whiteSpace=wrap;html=1;" parent="1" vertex="1">
          <mxGeometry x="20" y="-980" width="170" height="30" as="geometry" />
        </mxCell>
        <mxCell id="MY4qJXvExlTHak5WIAEV-40" style="edgeStyle=orthogonalEdgeStyle;rounded=0;orthogonalLoop=1;jettySize=auto;html=1;exitX=1;exitY=0.5;exitDx=0;exitDy=0;" edge="1" parent="1" source="o_KMD16_EwOAPX_b2kvC-1" target="MY4qJXvExlTHak5WIAEV-29">
          <mxGeometry relative="1" as="geometry" />
        </mxCell>
        <mxCell id="o_KMD16_EwOAPX_b2kvC-1" value="RESERVATION VIEW SERVICE" style="rounded=0;whiteSpace=wrap;html=1;" parent="1" vertex="1">
          <mxGeometry x="20" y="-880" width="170" height="30" as="geometry" />
        </mxCell>
        <mxCell id="MY4qJXvExlTHak5WIAEV-39" style="edgeStyle=orthogonalEdgeStyle;rounded=0;orthogonalLoop=1;jettySize=auto;html=1;exitX=1;exitY=0.5;exitDx=0;exitDy=0;" edge="1" parent="1" source="jOlDemy9Djilc2z4X3xP-2" target="MY4qJXvExlTHak5WIAEV-22">
          <mxGeometry relative="1" as="geometry">
            <mxPoint x="220" y="-1280" as="targetPoint" />
          </mxGeometry>
        </mxCell>
        <mxCell id="jOlDemy9Djilc2z4X3xP-2" value="TOTAL_SERVICE_VIEW" style="rounded=0;whiteSpace=wrap;html=1;" vertex="1" parent="1">
          <mxGeometry x="20" y="-1340" width="170" height="30" as="geometry" />
        </mxCell>
        <mxCell id="MY4qJXvExlTHak5WIAEV-32" value="" style="edgeStyle=orthogonalEdgeStyle;rounded=0;orthogonalLoop=1;jettySize=auto;html=1;" edge="1" parent="1" source="jOlDemy9Djilc2z4X3xP-4" target="MY4qJXvExlTHak5WIAEV-31">
          <mxGeometry relative="1" as="geometry" />
        </mxCell>
        <mxCell id="jOlDemy9Djilc2z4X3xP-4" value="DISCOUNT_SERVICE" style="rounded=0;whiteSpace=wrap;html=1;" vertex="1" parent="1">
          <mxGeometry x="20" y="-1250" width="170" height="30" as="geometry" />
        </mxCell>
        <mxCell id="MY4qJXvExlTHak5WIAEV-3" value="login,logout,&lt;div&gt;createAccount,resetPassword,&lt;/div&gt;&lt;div&gt;updateProfile&lt;/div&gt;" style="rounded=0;whiteSpace=wrap;html=1;fillColor=#fff2cc;strokeColor=#d6b656;" vertex="1" parent="1">
          <mxGeometry x="259.5" y="-2240" width="190" height="50" as="geometry" />
        </mxCell>
        <mxCell id="MY4qJXvExlTHak5WIAEV-7" value="chooseCheckInDate,&lt;div&gt;chooseCheckOutDate,&lt;/div&gt;&lt;div&gt;updateCheckInDate,&lt;/div&gt;&lt;div&gt;updateCheckOutDate,&lt;/div&gt;&lt;div&gt;validateDates&lt;/div&gt;" style="rounded=0;whiteSpace=wrap;html=1;fillColor=#fff2cc;strokeColor=#d6b656;" vertex="1" parent="1">
          <mxGeometry x="259.5" y="-2060" width="201" height="70" as="geometry" />
        </mxCell>
        <mxCell id="MY4qJXvExlTHak5WIAEV-10" value="setNumberOfGuests,&lt;div&gt;updateNumberOfGuests,&lt;/div&gt;&lt;div&gt;getNumberOfGuests,&lt;/div&gt;&lt;div&gt;validateGuestNumber&lt;/div&gt;" style="rounded=0;whiteSpace=wrap;html=1;fillColor=#fff2cc;strokeColor=#d6b656;" vertex="1" parent="1">
          <mxGeometry x="260.5" y="-1955" width="201" height="70" as="geometry" />
        </mxCell>
        <mxCell id="MY4qJXvExlTHak5WIAEV-11" value="" style="edgeStyle=orthogonalEdgeStyle;rounded=0;orthogonalLoop=1;jettySize=auto;html=1;entryX=0;entryY=0.5;entryDx=0;entryDy=0;exitX=1;exitY=0.5;exitDx=0;exitDy=0;" edge="1" parent="1" source="bn-_3K56SrCzuvJVatGM-1" target="MY4qJXvExlTHak5WIAEV-10">
          <mxGeometry relative="1" as="geometry">
            <mxPoint x="219.5" y="-1815.42" as="sourcePoint" />
            <mxPoint x="313.5" y="-1815.42" as="targetPoint" />
          </mxGeometry>
        </mxCell>
        <mxCell id="MY4qJXvExlTHak5WIAEV-13" value="chooseHotel,&lt;div&gt;updateHotelChoice,&lt;/div&gt;&lt;div&gt;getHotelDetails,&lt;/div&gt;&lt;div&gt;checkHotelAvailability,&lt;/div&gt;" style="rounded=0;whiteSpace=wrap;html=1;fillColor=#fff2cc;strokeColor=#d6b656;" vertex="1" parent="1">
          <mxGeometry x="259.5" y="-1860" width="201" height="70" as="geometry" />
        </mxCell>
        <mxCell id="MY4qJXvExlTHak5WIAEV-15" value="createRoomRequesti&lt;div&gt;getRoomRequest,&lt;/div&gt;&lt;div&gt;updateRoomRequest,&lt;/div&gt;&lt;div&gt;deleteRoomRequest,&lt;/div&gt;&lt;div&gt;checkRoomRequestStatus&lt;/div&gt;" style="rounded=0;whiteSpace=wrap;html=1;fillColor=#fff2cc;strokeColor=#d6b656;" vertex="1" parent="1">
          <mxGeometry x="258.75" y="-1700" width="200.5" height="80" as="geometry" />
        </mxCell>
        <mxCell id="MY4qJXvExlTHak5WIAEV-17" value="checkRoomAvailability&lt;div&gt;getAvailableRooms,&lt;/div&gt;&lt;div&gt;updateRoomAvailability,&lt;/div&gt;&lt;div&gt;notifyAvailability&lt;/div&gt;" style="whiteSpace=wrap;html=1;rounded=0;fillColor=#fff2cc;strokeColor=#d6b656;" vertex="1" parent="1">
          <mxGeometry x="259.5" y="-1560" width="200" height="100" as="geometry" />
        </mxCell>
        <mxCell id="MY4qJXvExlTHak5WIAEV-19" value="&lt;div&gt;&lt;br&gt;&lt;/div&gt;registerUser,&lt;div&gt;updateRegistrationDetails,&lt;/div&gt;&lt;div&gt;getRegistrationStatus,&lt;/div&gt;&lt;div&gt;cancelRegistration&lt;/div&gt;&lt;div&gt;validateRegistration&lt;/div&gt;&lt;div&gt;&lt;br&gt;&lt;/div&gt;" style="rounded=0;whiteSpace=wrap;html=1;fillColor=#fff2cc;strokeColor=#d6b656;" vertex="1" parent="1">
          <mxGeometry x="258.75" y="-2160" width="230.5" height="80" as="geometry" />
        </mxCell>
        <mxCell id="MY4qJXvExlTHak5WIAEV-22" value="getTotalServiceOverview,&lt;div&gt;updateServiceOverview,&lt;/div&gt;&lt;div&gt;getServiceDetails&lt;/div&gt;" style="whiteSpace=wrap;html=1;rounded=0;fillColor=#fff2cc;strokeColor=#d6b656;" vertex="1" parent="1">
          <mxGeometry x="258.75" y="-1320" width="180" height="60" as="geometry" />
        </mxCell>
        <mxCell id="MY4qJXvExlTHak5WIAEV-25" value="&lt;div&gt;&lt;br&gt;&lt;/div&gt;initiatePayment,&lt;div&gt;processPayment,&lt;/div&gt;&lt;div&gt;updatePaymentDetails,&lt;/div&gt;&lt;div&gt;getPaymentStatus,&lt;/div&gt;&lt;div&gt;cancelPayment&lt;/div&gt;&lt;div&gt;&lt;br&gt;&lt;/div&gt;" style="whiteSpace=wrap;html=1;rounded=0;fillColor=#fff2cc;strokeColor=#d6b656;" vertex="1" parent="1">
          <mxGeometry x="259.5" y="-1125" width="192.75" height="90" as="geometry" />
        </mxCell>
        <mxCell id="MY4qJXvExlTHak5WIAEV-27" value="sendConfirmaiton,&lt;div&gt;getConfirmaitonDetails,&lt;/div&gt;&lt;div&gt;updateConfirmaitonDetails,&lt;/div&gt;&lt;div&gt;resendConfirmation,&lt;/div&gt;&lt;div&gt;cancelConfirmation&lt;/div&gt;" style="whiteSpace=wrap;html=1;rounded=0;fillColor=#fff2cc;strokeColor=#d6b656;" vertex="1" parent="1">
          <mxGeometry x="259.5" y="-1005" width="175" height="80" as="geometry" />
        </mxCell>
        <mxCell id="MY4qJXvExlTHak5WIAEV-29" value="viewReservaiton,&lt;div&gt;updateReservaitonDetails,&lt;/div&gt;&lt;div&gt;cancelReservation,&lt;/div&gt;&lt;div&gt;getReservaitonStatus&lt;/div&gt;" style="whiteSpace=wrap;html=1;rounded=0;fillColor=#fff2cc;strokeColor=#d6b656;" vertex="1" parent="1">
          <mxGeometry x="259.5" y="-880" width="170" height="70" as="geometry" />
        </mxCell>
        <mxCell id="MY4qJXvExlTHak5WIAEV-31" value="applyDiscount,&lt;div&gt;removeDiscount,&lt;/div&gt;&lt;div&gt;getDiscountDetails,&lt;/div&gt;&lt;div&gt;validateDiscount,&lt;/div&gt;&lt;div&gt;updateDiscount&lt;/div&gt;" style="whiteSpace=wrap;html=1;rounded=0;fillColor=#fff2cc;strokeColor=#d6b656;" vertex="1" parent="1">
          <mxGeometry x="259.5" y="-1230" width="180" height="70" as="geometry" />
        </mxCell>
        <mxCell id="MY4qJXvExlTHak5WIAEV-34" value="createRoom , getRoom , updateRoom, deleteRoom, checkRoom,checkAvailability" style="whiteSpace=wrap;html=1;rounded=0;fillColor=#fff2cc;strokeColor=#d6b656;" vertex="1" parent="1">
          <mxGeometry x="259.5" y="-1430" width="199.75" height="80" as="geometry" />
        </mxCell>
      </root>
    </mxGraphModel>
  </diagram>
  <diagram id="JlUEWmuliTO_mN-zLxt-" name="ADMIN_SERVICE">
    <mxGraphModel dx="1114" dy="592" grid="1" gridSize="10" guides="1" tooltips="1" connect="1" arrows="1" fold="1" page="1" pageScale="1" pageWidth="827" pageHeight="1169" math="0" shadow="0">
      <root>
        <mxCell id="0" />
        <mxCell id="1" parent="0" />
        <mxCell id="zOPKjVEDq4Z8FlffI7wb-10" value="" style="edgeStyle=orthogonalEdgeStyle;rounded=0;orthogonalLoop=1;jettySize=auto;html=1;" parent="1" source="Rh8dZ8XtZ0p0KPGdMmW4-1" target="zOPKjVEDq4Z8FlffI7wb-9" edge="1">
          <mxGeometry relative="1" as="geometry" />
        </mxCell>
        <mxCell id="Rh8dZ8XtZ0p0KPGdMmW4-1" value="USER_SERVICE" style="rounded=0;whiteSpace=wrap;html=1;" parent="1" vertex="1">
          <mxGeometry x="50" y="40" width="170" height="30" as="geometry" />
        </mxCell>
        <mxCell id="zOPKjVEDq4Z8FlffI7wb-12" style="edgeStyle=orthogonalEdgeStyle;rounded=0;orthogonalLoop=1;jettySize=auto;html=1;exitX=1;exitY=0.5;exitDx=0;exitDy=0;entryX=0;entryY=0.5;entryDx=0;entryDy=0;" parent="1" source="Rh8dZ8XtZ0p0KPGdMmW4-2" target="zOPKjVEDq4Z8FlffI7wb-13" edge="1">
          <mxGeometry relative="1" as="geometry">
            <mxPoint x="360" y="105" as="targetPoint" />
          </mxGeometry>
        </mxCell>
        <mxCell id="Rh8dZ8XtZ0p0KPGdMmW4-2" value="RESERVATION VIEW SERVICE" style="rounded=0;whiteSpace=wrap;html=1;" parent="1" vertex="1">
          <mxGeometry x="50" y="90" width="170" height="30" as="geometry" />
        </mxCell>
        <mxCell id="zOPKjVEDq4Z8FlffI7wb-2" value="" style="edgeStyle=orthogonalEdgeStyle;rounded=0;orthogonalLoop=1;jettySize=auto;html=1;" parent="1" source="Rh8dZ8XtZ0p0KPGdMmW4-3" target="zOPKjVEDq4Z8FlffI7wb-1" edge="1">
          <mxGeometry relative="1" as="geometry" />
        </mxCell>
        <mxCell id="Rh8dZ8XtZ0p0KPGdMmW4-3" value="ROOM_SERVICE" style="rounded=0;whiteSpace=wrap;html=1;" parent="1" vertex="1">
          <mxGeometry x="50" y="140" width="170" height="30" as="geometry" />
        </mxCell>
        <mxCell id="zOPKjVEDq4Z8FlffI7wb-6" value="" style="edgeStyle=orthogonalEdgeStyle;rounded=0;orthogonalLoop=1;jettySize=auto;html=1;" parent="1" source="Rh8dZ8XtZ0p0KPGdMmW4-4" target="zOPKjVEDq4Z8FlffI7wb-5" edge="1">
          <mxGeometry relative="1" as="geometry" />
        </mxCell>
        <mxCell id="Rh8dZ8XtZ0p0KPGdMmW4-4" value="HOTEL_SERVICE" style="rounded=0;whiteSpace=wrap;html=1;" parent="1" vertex="1">
          <mxGeometry x="50" y="190" width="170" height="30" as="geometry" />
        </mxCell>
        <mxCell id="zOPKjVEDq4Z8FlffI7wb-1" value="createRoom , getRoom , updateRoom, deleteRoom, checkRoom,checkAvailability" style="rounded=0;whiteSpace=wrap;html=1;glass=1;" parent="1" vertex="1">
          <mxGeometry x="315" y="130" width="180" height="50" as="geometry" />
        </mxCell>
        <mxCell id="zOPKjVEDq4Z8FlffI7wb-5" value="createHotel,getHotel,updateHotel,deleteHotel" style="whiteSpace=wrap;html=1;rounded=0;" parent="1" vertex="1">
          <mxGeometry x="315" y="197.5" width="265" height="15" as="geometry" />
        </mxCell>
        <mxCell id="zOPKjVEDq4Z8FlffI7wb-9" value="&lt;div&gt;&lt;div&gt;&lt;br&gt;&lt;/div&gt;&lt;/div&gt;&lt;div&gt;createUser,getUser,&lt;div&gt;updateUser,deleteUser,&lt;/div&gt;&lt;div&gt;&lt;br&gt;&lt;div&gt;&lt;br&gt;&lt;/div&gt;&lt;/div&gt;&lt;/div&gt;" style="whiteSpace=wrap;html=1;rounded=0;" parent="1" vertex="1">
          <mxGeometry x="315" y="32.5" width="130" height="45" as="geometry" />
        </mxCell>
        <mxCell id="zOPKjVEDq4Z8FlffI7wb-13" value="createReser,updateRes,deleteRes,getReser" style="rounded=0;whiteSpace=wrap;html=1;" parent="1" vertex="1">
          <mxGeometry x="315" y="90" width="260" height="30" as="geometry" />
        </mxCell>
        <mxCell id="zOPKjVEDq4Z8FlffI7wb-16" value="" style="edgeStyle=orthogonalEdgeStyle;rounded=0;orthogonalLoop=1;jettySize=auto;html=1;" parent="1" source="zOPKjVEDq4Z8FlffI7wb-14" target="zOPKjVEDq4Z8FlffI7wb-15" edge="1">
          <mxGeometry relative="1" as="geometry" />
        </mxCell>
        <mxCell id="zOPKjVEDq4Z8FlffI7wb-14" value="PAYMENT_INFO_SERVICE" style="rounded=0;whiteSpace=wrap;html=1;" parent="1" vertex="1">
          <mxGeometry x="50" y="240" width="170" height="30" as="geometry" />
        </mxCell>
        <mxCell id="zOPKjVEDq4Z8FlffI7wb-15" value="getTotalPrice" style="whiteSpace=wrap;html=1;rounded=0;" parent="1" vertex="1">
          <mxGeometry x="315" y="225" width="120" height="60" as="geometry" />
        </mxCell>
        <mxCell id="OttrKH3Tr3CJt_gP5nBT-1" style="edgeStyle=orthogonalEdgeStyle;rounded=0;orthogonalLoop=1;jettySize=auto;html=1;exitX=0.5;exitY=1;exitDx=0;exitDy=0;" edge="1" parent="1" source="zOPKjVEDq4Z8FlffI7wb-9" target="zOPKjVEDq4Z8FlffI7wb-9">
          <mxGeometry relative="1" as="geometry" />
        </mxCell>
      </root>
    </mxGraphModel>
  </diagram>
  <diagram id="cuHOKjhq61f6KIlsGOor" name="error codes">
    <mxGraphModel dx="1434" dy="772" grid="1" gridSize="10" guides="1" tooltips="1" connect="1" arrows="1" fold="1" page="1" pageScale="1" pageWidth="827" pageHeight="1169" math="0" shadow="0">
      <root>
        <mxCell id="0" />
        <mxCell id="1" parent="0" />
        <mxCell id="YUOgM8rhIOsyg5uEgMw3-2" value="ERROR CODE&lt;div&gt;&lt;br&gt;&lt;/div&gt;" style="shape=table;startSize=30;container=1;collapsible=1;childLayout=tableLayout;fixedRows=1;rowLines=0;fontStyle=1;align=center;resizeLast=1;html=1;whiteSpace=wrap;" parent="1" vertex="1">
          <mxGeometry x="10" y="20" width="410" height="360" as="geometry" />
        </mxCell>
        <mxCell id="YUOgM8rhIOsyg5uEgMw3-3" value="" style="shape=tableRow;horizontal=0;startSize=0;swimlaneHead=0;swimlaneBody=0;fillColor=none;collapsible=0;dropTarget=0;points=[[0,0.5],[1,0.5]];portConstraint=eastwest;top=0;left=0;right=0;bottom=0;html=1;" parent="YUOgM8rhIOsyg5uEgMw3-2" vertex="1">
          <mxGeometry y="30" width="410" height="60" as="geometry" />
        </mxCell>
        <mxCell id="YUOgM8rhIOsyg5uEgMw3-4" value="Çıkış Tarihi &amp;gt; Giriş Tarihi&amp;nbsp;" style="shape=partialRectangle;connectable=0;fillColor=none;top=0;left=0;bottom=0;right=0;fontStyle=1;overflow=hidden;html=1;whiteSpace=wrap;" parent="YUOgM8rhIOsyg5uEgMw3-3" vertex="1">
          <mxGeometry width="80" height="60" as="geometry">
            <mxRectangle width="80" height="60" as="alternateBounds" />
          </mxGeometry>
        </mxCell>
        <mxCell id="YUOgM8rhIOsyg5uEgMw3-5" value="001" style="shape=partialRectangle;connectable=0;fillColor=none;top=0;left=0;bottom=0;right=0;align=left;spacingLeft=6;fontStyle=5;overflow=hidden;html=1;whiteSpace=wrap;" parent="YUOgM8rhIOsyg5uEgMw3-3" vertex="1">
          <mxGeometry x="80" width="330" height="60" as="geometry">
            <mxRectangle width="330" height="60" as="alternateBounds" />
          </mxGeometry>
        </mxCell>
        <mxCell id="YUOgM8rhIOsyg5uEgMw3-6" value="" style="shape=tableRow;horizontal=0;startSize=0;swimlaneHead=0;swimlaneBody=0;fillColor=none;collapsible=0;dropTarget=0;points=[[0,0.5],[1,0.5]];portConstraint=eastwest;top=0;left=0;right=0;bottom=1;html=1;" parent="YUOgM8rhIOsyg5uEgMw3-2" vertex="1">
          <mxGeometry y="90" width="410" height="20" as="geometry" />
        </mxCell>
        <mxCell id="YUOgM8rhIOsyg5uEgMw3-7" value="" style="shape=partialRectangle;connectable=0;fillColor=none;top=0;left=0;bottom=0;right=0;fontStyle=1;overflow=hidden;html=1;whiteSpace=wrap;" parent="YUOgM8rhIOsyg5uEgMw3-6" vertex="1">
          <mxGeometry width="80" height="20" as="geometry">
            <mxRectangle width="80" height="20" as="alternateBounds" />
          </mxGeometry>
        </mxCell>
        <mxCell id="YUOgM8rhIOsyg5uEgMw3-8" value="" style="shape=partialRectangle;connectable=0;fillColor=none;top=0;left=0;bottom=0;right=0;align=left;spacingLeft=6;fontStyle=5;overflow=hidden;html=1;whiteSpace=wrap;" parent="YUOgM8rhIOsyg5uEgMw3-6" vertex="1">
          <mxGeometry x="80" width="330" height="20" as="geometry">
            <mxRectangle width="330" height="20" as="alternateBounds" />
          </mxGeometry>
        </mxCell>
        <mxCell id="YUOgM8rhIOsyg5uEgMw3-9" value="" style="shape=tableRow;horizontal=0;startSize=0;swimlaneHead=0;swimlaneBody=0;fillColor=none;collapsible=0;dropTarget=0;points=[[0,0.5],[1,0.5]];portConstraint=eastwest;top=0;left=0;right=0;bottom=0;html=1;" parent="YUOgM8rhIOsyg5uEgMw3-2" vertex="1">
          <mxGeometry y="110" width="410" height="140" as="geometry" />
        </mxCell>
        <mxCell id="YUOgM8rhIOsyg5uEgMw3-10" value="Giriş Tarih =&amp;gt; Bugün Tarih&amp;nbsp;&lt;div&gt;&lt;br&gt;&lt;/div&gt;" style="shape=partialRectangle;connectable=0;fillColor=none;top=0;left=0;bottom=0;right=0;editable=1;overflow=hidden;html=1;whiteSpace=wrap;" parent="YUOgM8rhIOsyg5uEgMw3-9" vertex="1">
          <mxGeometry width="80" height="140" as="geometry">
            <mxRectangle width="80" height="140" as="alternateBounds" />
          </mxGeometry>
        </mxCell>
        <mxCell id="YUOgM8rhIOsyg5uEgMw3-11" value="002" style="shape=partialRectangle;connectable=0;fillColor=none;top=0;left=0;bottom=0;right=0;align=left;spacingLeft=6;overflow=hidden;html=1;whiteSpace=wrap;" parent="YUOgM8rhIOsyg5uEgMw3-9" vertex="1">
          <mxGeometry x="80" width="330" height="140" as="geometry">
            <mxRectangle width="330" height="140" as="alternateBounds" />
          </mxGeometry>
        </mxCell>
        <mxCell id="YUOgM8rhIOsyg5uEgMw3-12" value="" style="shape=tableRow;horizontal=0;startSize=0;swimlaneHead=0;swimlaneBody=0;fillColor=none;collapsible=0;dropTarget=0;points=[[0,0.5],[1,0.5]];portConstraint=eastwest;top=0;left=0;right=0;bottom=0;html=1;" parent="YUOgM8rhIOsyg5uEgMw3-2" vertex="1">
          <mxGeometry y="250" width="410" height="110" as="geometry" />
        </mxCell>
        <mxCell id="YUOgM8rhIOsyg5uEgMw3-13" value="Yetişkin Seçilmeden Çocuk Seçilemez&amp;nbsp;" style="shape=partialRectangle;connectable=0;fillColor=none;top=0;left=0;bottom=0;right=0;editable=1;overflow=hidden;html=1;whiteSpace=wrap;" parent="YUOgM8rhIOsyg5uEgMw3-12" vertex="1">
          <mxGeometry width="80" height="110" as="geometry">
            <mxRectangle width="80" height="110" as="alternateBounds" />
          </mxGeometry>
        </mxCell>
        <mxCell id="YUOgM8rhIOsyg5uEgMw3-14" value="003" style="shape=partialRectangle;connectable=0;fillColor=none;top=0;left=0;bottom=0;right=0;align=left;spacingLeft=6;overflow=hidden;html=1;whiteSpace=wrap;" parent="YUOgM8rhIOsyg5uEgMw3-12" vertex="1">
          <mxGeometry x="80" width="330" height="110" as="geometry">
            <mxRectangle width="330" height="110" as="alternateBounds" />
          </mxGeometry>
        </mxCell>
        <mxCell id="YUOgM8rhIOsyg5uEgMw3-16" value="" style="endArrow=none;html=1;rounded=0;exitX=-0.005;exitY=-0.014;exitDx=0;exitDy=0;exitPerimeter=0;entryX=1.002;entryY=-0.005;entryDx=0;entryDy=0;entryPerimeter=0;" parent="YUOgM8rhIOsyg5uEgMw3-2" source="YUOgM8rhIOsyg5uEgMw3-12" target="YUOgM8rhIOsyg5uEgMw3-12" edge="1">
          <mxGeometry relative="1" as="geometry">
            <mxPoint x="320" y="270" as="sourcePoint" />
            <mxPoint x="400" y="250" as="targetPoint" />
          </mxGeometry>
        </mxCell>
        <mxCell id="YUOgM8rhIOsyg5uEgMw3-17" value="1" style="resizable=0;html=1;whiteSpace=wrap;align=right;verticalAlign=bottom;" parent="YUOgM8rhIOsyg5uEgMw3-16" connectable="0" vertex="1">
          <mxGeometry x="1" relative="1" as="geometry" />
        </mxCell>
        <mxCell id="YUOgM8rhIOsyg5uEgMw3-35" style="edgeStyle=orthogonalEdgeStyle;rounded=0;orthogonalLoop=1;jettySize=auto;html=1;exitX=0.5;exitY=1;exitDx=0;exitDy=0;" parent="1" edge="1">
          <mxGeometry relative="1" as="geometry">
            <mxPoint x="675" y="310" as="sourcePoint" />
            <mxPoint x="675" y="310" as="targetPoint" />
          </mxGeometry>
        </mxCell>
        <mxCell id="YUOgM8rhIOsyg5uEgMw3-36" value="" style="shape=table;startSize=0;container=1;collapsible=1;childLayout=tableLayout;fixedRows=1;rowLines=0;fontStyle=1;align=center;resizeLast=1;html=1;whiteSpace=wrap;" parent="1" vertex="1">
          <mxGeometry x="10" y="380" width="410" height="280" as="geometry" />
        </mxCell>
        <mxCell id="YUOgM8rhIOsyg5uEgMw3-37" value="" style="shape=tableRow;horizontal=0;startSize=0;swimlaneHead=0;swimlaneBody=0;fillColor=none;collapsible=0;dropTarget=0;points=[[0,0.5],[1,0.5]];portConstraint=eastwest;top=0;left=0;right=0;bottom=0;html=1;" parent="YUOgM8rhIOsyg5uEgMw3-36" vertex="1">
          <mxGeometry width="410" height="80" as="geometry" />
        </mxCell>
        <mxCell id="YUOgM8rhIOsyg5uEgMw3-38" value="&lt;span style=&quot;font-weight: normal;&quot;&gt;Kullanıcı Bilgileri Hatalı&amp;nbsp;&lt;/span&gt;" style="shape=partialRectangle;connectable=0;fillColor=none;top=0;left=0;bottom=0;right=0;fontStyle=1;overflow=hidden;html=1;whiteSpace=wrap;" parent="YUOgM8rhIOsyg5uEgMw3-37" vertex="1">
          <mxGeometry width="80" height="80" as="geometry">
            <mxRectangle width="80" height="80" as="alternateBounds" />
          </mxGeometry>
        </mxCell>
        <mxCell id="YUOgM8rhIOsyg5uEgMw3-39" value="&lt;span style=&quot;font-weight: 400;&quot;&gt;004&lt;/span&gt;" style="shape=partialRectangle;connectable=0;fillColor=none;top=0;left=0;bottom=0;right=0;align=left;spacingLeft=6;fontStyle=5;overflow=hidden;html=1;whiteSpace=wrap;" parent="YUOgM8rhIOsyg5uEgMw3-37" vertex="1">
          <mxGeometry x="80" width="330" height="80" as="geometry">
            <mxRectangle width="330" height="80" as="alternateBounds" />
          </mxGeometry>
        </mxCell>
        <mxCell id="YUOgM8rhIOsyg5uEgMw3-40" value="" style="shape=tableRow;horizontal=0;startSize=0;swimlaneHead=0;swimlaneBody=0;fillColor=none;collapsible=0;dropTarget=0;points=[[0,0.5],[1,0.5]];portConstraint=eastwest;top=0;left=0;right=0;bottom=1;html=1;" parent="YUOgM8rhIOsyg5uEgMw3-36" vertex="1">
          <mxGeometry y="80" width="410" height="40" as="geometry" />
        </mxCell>
        <mxCell id="YUOgM8rhIOsyg5uEgMw3-41" value="" style="shape=partialRectangle;connectable=0;fillColor=none;top=0;left=0;bottom=0;right=0;fontStyle=1;overflow=hidden;html=1;whiteSpace=wrap;" parent="YUOgM8rhIOsyg5uEgMw3-40" vertex="1">
          <mxGeometry width="80" height="40" as="geometry">
            <mxRectangle width="80" height="40" as="alternateBounds" />
          </mxGeometry>
        </mxCell>
        <mxCell id="YUOgM8rhIOsyg5uEgMw3-42" value="" style="shape=partialRectangle;connectable=0;fillColor=none;top=0;left=0;bottom=0;right=0;align=left;spacingLeft=6;fontStyle=5;overflow=hidden;html=1;whiteSpace=wrap;" parent="YUOgM8rhIOsyg5uEgMw3-40" vertex="1">
          <mxGeometry x="80" width="330" height="40" as="geometry">
            <mxRectangle width="330" height="40" as="alternateBounds" />
          </mxGeometry>
        </mxCell>
        <mxCell id="YUOgM8rhIOsyg5uEgMw3-43" value="" style="shape=tableRow;horizontal=0;startSize=0;swimlaneHead=0;swimlaneBody=0;fillColor=none;collapsible=0;dropTarget=0;points=[[0,0.5],[1,0.5]];portConstraint=eastwest;top=0;left=0;right=0;bottom=0;html=1;" parent="YUOgM8rhIOsyg5uEgMw3-36" vertex="1">
          <mxGeometry y="120" width="410" height="80" as="geometry" />
        </mxCell>
        <mxCell id="YUOgM8rhIOsyg5uEgMw3-44" value="Telefon Numarası 10 hane" style="shape=partialRectangle;connectable=0;fillColor=none;top=0;left=0;bottom=0;right=0;editable=1;overflow=hidden;html=1;whiteSpace=wrap;" parent="YUOgM8rhIOsyg5uEgMw3-43" vertex="1">
          <mxGeometry width="80" height="80" as="geometry">
            <mxRectangle width="80" height="80" as="alternateBounds" />
          </mxGeometry>
        </mxCell>
        <mxCell id="YUOgM8rhIOsyg5uEgMw3-45" value="005" style="shape=partialRectangle;connectable=0;fillColor=none;top=0;left=0;bottom=0;right=0;align=left;spacingLeft=6;overflow=hidden;html=1;whiteSpace=wrap;" parent="YUOgM8rhIOsyg5uEgMw3-43" vertex="1">
          <mxGeometry x="80" width="330" height="80" as="geometry">
            <mxRectangle width="330" height="80" as="alternateBounds" />
          </mxGeometry>
        </mxCell>
        <mxCell id="YUOgM8rhIOsyg5uEgMw3-46" value="" style="shape=tableRow;horizontal=0;startSize=0;swimlaneHead=0;swimlaneBody=0;fillColor=none;collapsible=0;dropTarget=0;points=[[0,0.5],[1,0.5]];portConstraint=eastwest;top=0;left=0;right=0;bottom=0;html=1;" parent="YUOgM8rhIOsyg5uEgMw3-36" vertex="1">
          <mxGeometry y="200" width="410" height="80" as="geometry" />
        </mxCell>
        <mxCell id="YUOgM8rhIOsyg5uEgMw3-47" value="Kart Numarası 16 hane" style="shape=partialRectangle;connectable=0;fillColor=none;top=0;left=0;bottom=0;right=0;editable=1;overflow=hidden;html=1;whiteSpace=wrap;" parent="YUOgM8rhIOsyg5uEgMw3-46" vertex="1">
          <mxGeometry width="80" height="80" as="geometry">
            <mxRectangle width="80" height="80" as="alternateBounds" />
          </mxGeometry>
        </mxCell>
        <mxCell id="YUOgM8rhIOsyg5uEgMw3-48" value="006" style="shape=partialRectangle;connectable=0;fillColor=none;top=0;left=0;bottom=0;right=0;align=left;spacingLeft=6;overflow=hidden;html=1;whiteSpace=wrap;" parent="YUOgM8rhIOsyg5uEgMw3-46" vertex="1">
          <mxGeometry x="80" width="330" height="80" as="geometry">
            <mxRectangle width="330" height="80" as="alternateBounds" />
          </mxGeometry>
        </mxCell>
        <mxCell id="YUOgM8rhIOsyg5uEgMw3-51" value="" style="endArrow=none;html=1;rounded=0;exitX=0.995;exitY=0.069;exitDx=0;exitDy=0;exitPerimeter=0;" parent="1" source="YUOgM8rhIOsyg5uEgMw3-46" edge="1">
          <mxGeometry relative="1" as="geometry">
            <mxPoint x="280" y="585" as="sourcePoint" />
            <mxPoint x="10" y="585" as="targetPoint" />
          </mxGeometry>
        </mxCell>
        <mxCell id="YUOgM8rhIOsyg5uEgMw3-52" value="1" style="resizable=0;html=1;whiteSpace=wrap;align=right;verticalAlign=bottom;" parent="YUOgM8rhIOsyg5uEgMw3-51" connectable="0" vertex="1">
          <mxGeometry x="1" relative="1" as="geometry" />
        </mxCell>
        <mxCell id="YUOgM8rhIOsyg5uEgMw3-66" value="" style="shape=table;startSize=0;container=1;collapsible=1;childLayout=tableLayout;fixedRows=1;rowLines=0;fontStyle=1;align=center;resizeLast=1;html=1;whiteSpace=wrap;" parent="1" vertex="1">
          <mxGeometry x="10" y="650" width="410" height="220" as="geometry" />
        </mxCell>
        <mxCell id="YUOgM8rhIOsyg5uEgMw3-67" value="" style="shape=tableRow;horizontal=0;startSize=0;swimlaneHead=0;swimlaneBody=0;fillColor=none;collapsible=0;dropTarget=0;points=[[0,0.5],[1,0.5]];portConstraint=eastwest;top=0;left=0;right=0;bottom=0;html=1;" parent="YUOgM8rhIOsyg5uEgMw3-66" vertex="1">
          <mxGeometry width="410" height="60" as="geometry" />
        </mxCell>
        <mxCell id="YUOgM8rhIOsyg5uEgMw3-68" value="CVV 3 hane" style="shape=partialRectangle;connectable=0;fillColor=none;top=0;left=0;bottom=0;right=0;fontStyle=1;overflow=hidden;html=1;whiteSpace=wrap;" parent="YUOgM8rhIOsyg5uEgMw3-67" vertex="1">
          <mxGeometry width="80" height="60" as="geometry">
            <mxRectangle width="80" height="60" as="alternateBounds" />
          </mxGeometry>
        </mxCell>
        <mxCell id="YUOgM8rhIOsyg5uEgMw3-69" value="&lt;span style=&quot;font-weight: normal;&quot;&gt;007&lt;span style=&quot;white-space: pre;&quot;&gt;&#x9;&lt;/span&gt;&lt;/span&gt;" style="shape=partialRectangle;connectable=0;fillColor=none;top=0;left=0;bottom=0;right=0;align=left;spacingLeft=6;fontStyle=5;overflow=hidden;html=1;whiteSpace=wrap;" parent="YUOgM8rhIOsyg5uEgMw3-67" vertex="1">
          <mxGeometry x="80" width="330" height="60" as="geometry">
            <mxRectangle width="330" height="60" as="alternateBounds" />
          </mxGeometry>
        </mxCell>
        <mxCell id="YUOgM8rhIOsyg5uEgMw3-70" value="" style="shape=tableRow;horizontal=0;startSize=0;swimlaneHead=0;swimlaneBody=0;fillColor=none;collapsible=0;dropTarget=0;points=[[0,0.5],[1,0.5]];portConstraint=eastwest;top=0;left=0;right=0;bottom=1;html=1;" parent="YUOgM8rhIOsyg5uEgMw3-66" vertex="1">
          <mxGeometry y="60" width="410" height="30" as="geometry" />
        </mxCell>
        <mxCell id="YUOgM8rhIOsyg5uEgMw3-71" value="" style="shape=partialRectangle;connectable=0;fillColor=none;top=0;left=0;bottom=0;right=0;fontStyle=1;overflow=hidden;html=1;whiteSpace=wrap;" parent="YUOgM8rhIOsyg5uEgMw3-70" vertex="1">
          <mxGeometry width="80" height="30" as="geometry">
            <mxRectangle width="80" height="30" as="alternateBounds" />
          </mxGeometry>
        </mxCell>
        <mxCell id="YUOgM8rhIOsyg5uEgMw3-72" value="" style="shape=partialRectangle;connectable=0;fillColor=none;top=0;left=0;bottom=0;right=0;align=left;spacingLeft=6;fontStyle=5;overflow=hidden;html=1;whiteSpace=wrap;" parent="YUOgM8rhIOsyg5uEgMw3-70" vertex="1">
          <mxGeometry x="80" width="330" height="30" as="geometry">
            <mxRectangle width="330" height="30" as="alternateBounds" />
          </mxGeometry>
        </mxCell>
        <mxCell id="YUOgM8rhIOsyg5uEgMw3-73" value="" style="shape=tableRow;horizontal=0;startSize=0;swimlaneHead=0;swimlaneBody=0;fillColor=none;collapsible=0;dropTarget=0;points=[[0,0.5],[1,0.5]];portConstraint=eastwest;top=0;left=0;right=0;bottom=0;html=1;" parent="YUOgM8rhIOsyg5uEgMw3-66" vertex="1">
          <mxGeometry y="90" width="410" height="100" as="geometry" />
        </mxCell>
        <mxCell id="YUOgM8rhIOsyg5uEgMw3-74" value="Aynı telefon numarası ile birden fazla hesap oluşturulamaz" style="shape=partialRectangle;connectable=0;fillColor=none;top=0;left=0;bottom=0;right=0;editable=1;overflow=hidden;html=1;whiteSpace=wrap;" parent="YUOgM8rhIOsyg5uEgMw3-73" vertex="1">
          <mxGeometry width="80" height="100" as="geometry">
            <mxRectangle width="80" height="100" as="alternateBounds" />
          </mxGeometry>
        </mxCell>
        <mxCell id="YUOgM8rhIOsyg5uEgMw3-75" value="008" style="shape=partialRectangle;connectable=0;fillColor=none;top=0;left=0;bottom=0;right=0;align=left;spacingLeft=6;overflow=hidden;html=1;whiteSpace=wrap;" parent="YUOgM8rhIOsyg5uEgMw3-73" vertex="1">
          <mxGeometry x="80" width="330" height="100" as="geometry">
            <mxRectangle width="330" height="100" as="alternateBounds" />
          </mxGeometry>
        </mxCell>
        <mxCell id="YUOgM8rhIOsyg5uEgMw3-76" value="" style="shape=tableRow;horizontal=0;startSize=0;swimlaneHead=0;swimlaneBody=0;fillColor=none;collapsible=0;dropTarget=0;points=[[0,0.5],[1,0.5]];portConstraint=eastwest;top=0;left=0;right=0;bottom=0;html=1;" parent="YUOgM8rhIOsyg5uEgMw3-66" vertex="1">
          <mxGeometry y="190" width="410" height="30" as="geometry" />
        </mxCell>
        <mxCell id="YUOgM8rhIOsyg5uEgMw3-77" value="" style="shape=partialRectangle;connectable=0;fillColor=none;top=0;left=0;bottom=0;right=0;editable=1;overflow=hidden;html=1;whiteSpace=wrap;" parent="YUOgM8rhIOsyg5uEgMw3-76" vertex="1">
          <mxGeometry width="80" height="30" as="geometry">
            <mxRectangle width="80" height="30" as="alternateBounds" />
          </mxGeometry>
        </mxCell>
        <mxCell id="YUOgM8rhIOsyg5uEgMw3-78" value="" style="shape=partialRectangle;connectable=0;fillColor=none;top=0;left=0;bottom=0;right=0;align=left;spacingLeft=6;overflow=hidden;html=1;whiteSpace=wrap;" parent="YUOgM8rhIOsyg5uEgMw3-76" vertex="1">
          <mxGeometry x="80" width="330" height="30" as="geometry">
            <mxRectangle width="330" height="30" as="alternateBounds" />
          </mxGeometry>
        </mxCell>
      </root>
    </mxGraphModel>
  </diagram>
</mxfile>
